<svg xmlns="http://www.w3.org/2000/svg" viewBox="0 0 521 1041"><defs><style>.cls-1,.cls-7{fill:#fff;}.cls-1,.cls-2,.cls-3{stroke:silver;}.cls-1,.cls-3{stroke-miterlimit:10;}.cls-2,.cls-3,.cls-6{fill:none;}.cls-4{fill:#c1e4f7;stroke:#000;stroke-width:0.5px;}.cls-5{fill:#0c7cba;}</style></defs><title>Schermata base</title><g id="Livello_2" data-name="Livello 2"><path class="cls-1" d="M0,65A65,65,0,0,1,65,0H455a65,65,0,0,1,65,65V975a65,65,0,0,1-65,65H65A65,65,0,0,1,0,975Z" transform="translate(0.5 0.5)"/><circle class="cls-2" cx="259.48" cy="48.49" r="6.5"/><path class="cls-3" d="M194,89.59a10.41,10.41,0,0,1,10.4-10.4h109.2a10.4,10.4,0,1,1,0,20.8H204.38A10.4,10.4,0,0,1,194,89.59Z" transform="translate(0.5 0.5)"/><rect class="cls-4" x="31.98" y="157.69" width="455" height="728"/><rect x="31.98" y="157.69" width="455" height="30.71"/><path class="cls-5" d="M31.48,185.67h455V257h-455Z" transform="translate(0.5 0.5)"/></g><g id="Livello_1" data-name="Livello 1"><path class="cls-6" transform="translate(0.5 0.5)"/><circle class="cls-2" cx="259.48" cy="963.69" r="52"/><path class="cls-3" d="M236.88,948.89a6.5,6.5,0,0,1,6.5-6.5h31.2a6.5,6.5,0,0,1,6.5,6.5v31.2a6.5,6.5,0,0,1-6.5,6.5h-31.2a6.5,6.5,0,0,1-6.5-6.5Z" transform="translate(0.5 0.5)"/><path class="cls-6" transform="translate(0.5 0.5)"/><path class="cls-7" d="M456.69,167.51v6.42a.94.94,0,0,0,.95.94h8V166.6h-8a.94.94,0,0,0-.95.92Z" transform="translate(0.5 0.5)"/><path class="cls-7" d="M473.9,168.8v-1.29a1,1,0,0,0-.92-.95h-6.71v.66H473a.28.28,0,0,1,.29.29v6.42a.3.3,0,0,1-.29.31h-6.71v.63H473a.93.93,0,0,0,.92-.94v-1.28a1.94,1.94,0,0,0,1.9-1.93,1.92,1.92,0,0,0-1.9-1.92Z" transform="translate(0.5 0.5)"/><g id="b"><path id="i" class="cls-7" d="M229.12,176.15V175h2.63v-7.79l-2.3,1.6v-1.19l2.38-1.68H233V175h2.5v1.11h-6.4" transform="translate(0.5 0.5)"/><path class="cls-7" d="M236.22,176.15V175h2.62v-7.79l-2.3,1.6v-1.19l2.38-1.68h1.19V175h2.5v1.11h-6.39" transform="translate(0.5 0.5)"/><path id="j" class="cls-7" d="M244.67,169.83v-1.48h1.39v1.48Zm0,6.32v-1.48h1.39v1.48h-1.39" transform="translate(0.5 0.5)"/><path id="k" class="cls-7" d="M251.56,165.85c3.36-.28,3.81,3.57,1.76,5.42l-2.54,2.25a4.52,4.52,0,0,0-1.19,1.52h5.29v1.11h-6.73c.08-4.06,5.25-3.86,5.25-7.47a1.62,1.62,0,0,0-1.84-1.76,1.8,1.8,0,0,0-2,1.68l-1.32-.12c.25-1.68,1.4-2.46,3.33-2.63" transform="translate(0.5 0.5)"/><path id="l" class="cls-7" d="M258.24,176.15c.12-4,2-6.52,3.61-9.07h-5.5V166h6.73V167c-1.6,2.67-3.45,5-3.49,9.11h-1.35" transform="translate(0.5 0.5)"/></g><g id="c"><path id="m" class="cls-7" d="M276.33,176.15l-1.15-3h-4.64l-1.14,3H268L272.1,166h1.56l4.06,10.17Zm-1.56-4.06L272.84,167a53.46,53.46,0,0,1-1.89,5.05h3.82" transform="translate(0.5 0.5)"/><path id="n" class="cls-7" d="M287.61,176.15l.08-8.94c-.95,3.11-2.22,5.94-3.28,8.94h-1l-3.32-8.94,0,8.94H279V166h1.81l3.16,8.65c.86-3.08,2.09-5.74,3.11-8.65h1.77v10.17h-1.23" transform="translate(0.5 0.5)"/></g><g id="g"><path id="y" class="cls-7" d="M197.63,216.39c-.4-3.9-10-4.38-10.06.16,1.14,6.08,12.82,1.14,13.23,9.65.24,6.33-9.82,7.06-14.2,4.47a5.81,5.81,0,0,1-2.68-3.73l2.68-.57c.4,4.54,11.44,5.11,11.44-.08,0-6.33-12.58-1.14-13.15-9.58-.4-6.65,11.77-6.81,14.53-2.76a7.8,7.8,0,0,1,.89,2" transform="translate(0.5 0.5)"/><path id="z" class="cls-7" d="M213.54,228.8c-1.22,1.71-2.52,3.33-5.52,3.25s-4.71-1.71-4.71-4.63c-.08-5.19,5.12-5.11,10.15-5.11.24-2.84-.73-4.38-3.33-4.38-1.95.08-3.33.57-3.41,2.51L204,220.2c.41-3,2.68-4.22,6.17-4.22,3.65,0,5.84,1.62,5.84,5.19v6.66c-.08,1.62.57,2.59,2.27,2.19v1.62C215.81,232.37,213.37,231.48,213.54,228.8ZM206,227.42a2.45,2.45,0,0,0,2.6,2.68c3.32-.24,5.11-2.35,4.87-6-3.49.16-7.47-.41-7.47,3.32" transform="translate(0.5 0.5)"/><path id="A" class="cls-7" d="M226.52,212.74c-2.52-.73-3.41.81-3.08,3.57h3.08v1.86h-3.08v13.55h-2.52V218.17h-2.19v-1.86h2.19c-.57-4.22,1.38-6.66,5.6-5.52v2" transform="translate(0.5 0.5)"/><path id="B-2" data-name="B" class="cls-7" d="M234.55,216c5.11,0,7,3.41,6.82,8.6h-11c0,3.25,1.14,5.44,4.3,5.52a3.78,3.78,0,0,0,4-2.35l2.27.65c-.89,2.27-3,3.65-6.25,3.65-4.7,0-7.14-3-7.05-8.12C227.74,219,229.77,216,234.55,216Zm4.22,6.57c.49-4.86-6.16-6.24-7.87-2.27a6,6,0,0,0-.49,2.27h8.36" transform="translate(0.5 0.5)"/><path class="cls-7" d="M257.68,216.39c-.41-3.9-10-4.38-10.06.16,1.13,6.08,12.82,1.14,13.22,9.65.25,6.33-9.82,7.06-14.2,4.47a5.81,5.81,0,0,1-2.68-3.73l2.68-.57c.41,4.54,11.44,5.11,11.44-.08,0-6.33-12.57-1.14-13.14-9.58-.41-6.65,11.76-6.81,14.52-2.76a7.82,7.82,0,0,1,.9,2" transform="translate(0.5 0.5)"/><path id="C-2" data-name="C" class="cls-7" d="M266.93,227.91c-.16,2,1.46,2.35,3.08,1.78v1.95c-2.68.81-5.68.41-5.68-3.16V218.17h-1.78v-1.86h1.94l.73-3.49h1.71v3.49h2.84v1.86h-2.84v9.74" transform="translate(0.5 0.5)"/><path id="D" class="cls-7" d="M279.5,218.5c-6.32-1.3-4.3,7.38-4.62,13.22h-2.6l-.08-15.41h2.44a18.77,18.77,0,0,0,.16,3.16c.48-2.19,1.86-4,4.7-3.33v2.36" transform="translate(0.5 0.5)"/><path class="cls-7" d="M288,216c5.12,0,7,3.41,6.82,8.6H283.89c0,3.25,1.13,5.44,4.3,5.52a3.76,3.76,0,0,0,4-2.35l2.27.65c-.89,2.27-3,3.65-6.24,3.65-4.71,0-7.14-3-7.06-8.12C281.21,219,283.24,216,288,216Zm4.22,6.57c.49-4.86-6.16-6.24-7.87-2.27a6,6,0,0,0-.48,2.27h8.35" transform="translate(0.5 0.5)"/><path class="cls-7" d="M304.25,216c5.11,0,7,3.41,6.82,8.6h-11c0,3.25,1.14,5.44,4.3,5.52a3.78,3.78,0,0,0,4-2.35l2.27.65c-.89,2.27-3,3.65-6.25,3.65-4.7,0-7.14-3-7.06-8.12C297.44,219,299.46,216,304.25,216Zm4.22,6.57c.49-4.86-6.17-6.24-7.87-2.27a6,6,0,0,0-.49,2.27h8.36" transform="translate(0.5 0.5)"/><path class="cls-7" d="M317.15,227.91c-.16,2,1.46,2.35,3.09,1.78v1.95c-2.68.81-5.68.41-5.68-3.16V218.17h-1.79v-1.86h2l.73-3.49h1.7v3.49H320v1.86h-2.84v9.74" transform="translate(0.5 0.5)"/><path id="E" class="cls-7" d="M331.43,220.12c-.24-2.76-7-3.08-7.06,0,1.22,4.3,9.34,1,9.66,7.3s-12.17,6-12.74.65l2.27-.4c.33,2.92,7.87,3.65,8,0-.82-4.55-9.17-1.22-9.58-7.31-.32-4.62,6.65-5.11,9.9-3.41a4.13,4.13,0,0,1,2,2.84" transform="translate(0.5 0.5)"/></g><path class="cls-7" d="M46.52,175.81l2.75,3,2.74-3a5.13,5.13,0,0,0-2.74-1.14,5.13,5.13,0,0,0-2.75,1.14" transform="translate(0.5 0.5)"/><path class="cls-7" d="M43.11,172.16l1.6,1.58a5.69,5.69,0,0,1,4.56-1.82,5.66,5.66,0,0,1,4.55,1.83l1.6-1.58s-3-2.53-6.15-2.53-6.16,2.53-6.16,2.53" transform="translate(0.5 0.5)"/><path class="cls-7" d="M49.27,165.07c-5.26,0-9.6,3.88-9.6,3.88l1.6,1.61a12.29,12.29,0,0,1,8-3.19,12.28,12.28,0,0,1,8,3.19l1.6-1.61s-4.34-3.88-9.59-3.88" transform="translate(0.5 0.5)"/></g></svg>